<?xml version="1.0" encoding="utf-8"?>
<!-- Generator: Adobe Illustrator 23.0.2, SVG Export Plug-In . SVG Version: 6.00 Build 0)  -->
<svg version="1.1" id="Layer_1" xmlns="http://www.w3.org/2000/svg" xmlns:xlink="http://www.w3.org/1999/xlink" x="0px" y="0px"
	 viewBox="0 0 384 34" enable-background="new 0 0 384 34" xml:space="preserve">
<g>
	<path opacity="0.8" fill="#FFFFFF" d="M24.3,19.6c0.1-0.2,0-0.5-0.2-0.8c-0.4-0.6-1.4-1.1-2.8-1.4h9.6c-1.4,0.4-2.4,0.8-2.8,1.4
		c-0.2,0.3-0.3,0.6-0.2,0.8v10.4c-0.4,0.3-1.1,0.7-2.1,1c-2,0.7-4.3,1-7,1c-4.9,0-8.9-1.2-11.8-3.6c-3.3-2.7-5-6.7-5-12
		C1.8,14,2.3,11.6,3.6,9.2C6.1,4.4,10.8,2,17.7,2c5.6,0.4,9,0.8,10.4,1.3l-1,6.6c-0.2-1.1-0.7-2.2-1.6-3.3c-1.7-2.2-4.2-3.3-7.5-3.3
		c-4,0-7.1,1.2-9.4,3.5c-2.3,2.3-3.5,5.6-3.5,9.7c0,3.9,1.6,7.3,4.8,10c2.9,2.5,6.2,3.8,9.8,3.8c2,0.1,3.5-0.4,4.6-1.4V19.6z"/>
	<path opacity="0.8" fill="#FFFFFF" d="M52.8,32c0.5-0.7,1.2-1.1,2.3-1.4l-3.9-9.9h-8.3l-3.2,9.5c0,0.6,0.4,1.1,1.2,1.5
		c0.4,0.2,0.8,0.3,1.1,0.4h-8.8c1.3-0.2,2.3-0.7,3-1.5c0.4-0.4,0.6-0.8,0.8-1.2L47.3,2c7,17,10.8,26.1,11.5,27.5
		c0.4,0.8,1.1,1.5,2.1,2c0.5,0.3,0.9,0.4,1.3,0.5H52.8z M50.7,18.8L47.1,8.7l-3.7,10.1L50.7,18.8z"/>
	<path opacity="0.8" fill="#FFFFFF" d="M82.7,31.4L82.7,31.4L82.7,31.4l-0.1-0.1l-9.9-18.6L70.6,28v1c0.1,0.8,0.5,1.5,1.3,2.1
		c0.4,0.3,0.8,0.5,1.2,0.7h-8.5c0.4-0.1,0.8-0.4,1.2-0.7c0.8-0.6,1.3-1.3,1.3-2.1L70.6,2l12.1,24.4l12.4-24l4.5,26.9
		c0.1,0.8,0.5,1.5,1.3,2.1c0.4,0.3,0.8,0.5,1.2,0.6h-8.5c0.4-0.1,0.8-0.4,1.2-0.6c0.8-0.6,1.3-1.3,1.3-2.1v-1l-3.4-14.9L82.7,31.4
		L82.7,31.4z"/>
	<path opacity="0.8" fill="#FFFFFF" d="M119.9,2.5L121,2l-1.1,5.5c0-0.5-0.2-1.1-0.5-1.6c-0.6-1.1-1.4-1.6-2.7-1.6h-5.7v11.2h6.3
		c1.2,0,2.2-0.4,3-1l-0.7,5.9c0-0.5-0.2-1.1-0.5-1.6c-0.6-1.1-1.7-1.6-3.2-1.6h-4.8v11.1c0.3,0.4,0.8,0.8,1.4,1.3
		c1.2,0.8,2.5,1.3,3.9,1.3c1.4,0,2.7-0.7,3.9-2c0.6-0.7,1.1-1.3,1.4-2L121,32h-16c0.4-0.1,0.8-0.4,1.3-0.7c0.9-0.6,1.3-1.4,1.3-2.3
		c0-1.4,0-9.5,0-24.5c-0.4-0.9-1.5-1.6-3-2H119.9z"/>
	<path opacity="0.8" fill="#FFFFFF" d="M149.2,2c3.5,0,6.7,1.4,9.6,4.2c3.3,3.1,4.9,6.9,4.9,11.4c0,4.4-1.7,7.9-5,10.8
		c-2.9,2.4-6.1,3.6-9.5,3.6c-3.7,0-7-1.1-10-3.2c-3.7-2.7-5.5-6.4-5.5-11.3c0-6.8,2.6-11.5,7.7-13.9C144,2.4,146.6,1.9,149.2,2z
		 M137.5,17c0,4,1,7.2,3,9.6c1.4,1.7,3.2,2.8,5.5,3.5v-26c-2.2,0.6-4.1,1.8-5.5,3.4C138.5,9.8,137.5,13,137.5,17z M147.8,3.7
		c-0.3,0-0.7,0.1-1,0.2v26.5c0.3,0.1,0.7,0.1,1,0.2V3.7z M149.3,30.5c0.4,0,0.8,0,1.2-0.1V3.9c-0.4-0.1-0.8-0.2-1.2-0.2V30.5z
		 M151.4,30.3c2.3-0.5,4.1-1.5,5.5-3.1c2-2.2,3-5.4,3-9.6c0-4.2-1-7.5-3-9.9c-1.4-1.7-3.3-2.9-5.5-3.6V30.3z"/>
	<path opacity="0.8" fill="#FFFFFF" d="M178.9,15.5c1.2,0,2.2-0.4,3-1l-0.7,5.9c0-0.5-0.2-1.1-0.5-1.6c-0.6-1.1-1.7-1.6-3.2-1.6
		h-4.8v11.1l0,0.5v0.5c0.1,0.8,0.5,1.5,1.3,2.1c0.4,0.3,0.8,0.5,1.2,0.7h-8.6c0.4-0.1,0.8-0.4,1.2-0.7c0.8-0.6,1.3-1.3,1.3-2.1v-9.1
		h0c0-4.7,0-9.9,0-15.5c-0.4-0.9-1.5-1.6-3-2h15.4l1.1-0.5l-1.1,5.5c0-0.5-0.2-1.1-0.5-1.6c-0.6-1.1-1.4-1.6-2.7-1.6h-5.7v11.2
		H178.9z"/>
	<path opacity="0.8" fill="#FFFFFF" d="M218.1,2L217,7.5c0-0.5-0.2-1.1-0.5-1.6c-0.6-1.1-1.4-1.6-2.7-1.6h-5.7v0.4
		c0,5.7,0,10.8,0,15.5v9.1c0.1,0.8,0.5,1.5,1.3,2.1c0.4,0.3,0.8,0.5,1.2,0.7h-8.6c0.4-0.1,0.8-0.4,1.2-0.7c0.8-0.6,1.3-1.3,1.3-2.1
		v-9.1c0-4.7,0-9.9,0-15.5l0-0.4H199c-1.2,0-2.1,0.5-2.7,1.6c-0.3,0.5-0.4,1.1-0.5,1.6L194.7,2l1.1,0.5H217L218.1,2z"/>
	<path opacity="0.8" fill="#FFFFFF" d="M246.6,29.2c0.1,0.8,0.5,1.5,1.3,2.1c0.4,0.3,0.8,0.5,1.2,0.7h-8.6c0.4-0.1,0.8-0.4,1.2-0.7
		c0.8-0.6,1.3-1.3,1.3-2.1V16.6h-16.5v12.6c0.1,0.8,0.5,1.5,1.3,2.1c0.4,0.3,0.8,0.5,1.2,0.7h-8.6c0.4-0.1,0.8-0.4,1.2-0.7
		c0.8-0.6,1.3-1.3,1.3-2.1V4.8c-0.1-0.8-0.5-1.5-1.3-2.1c-0.4-0.3-0.8-0.5-1.2-0.7h8.6c-0.4,0.1-0.8,0.4-1.2,0.7
		c-0.8,0.6-1.3,1.3-1.3,2.1v9.7h16.5V4.8c-0.1-0.8-0.5-1.5-1.3-2.1c-0.4-0.3-0.8-0.5-1.2-0.7h8.6c-0.4,0.1-0.8,0.4-1.2,0.7
		c-0.8,0.6-1.3,1.3-1.3,2.1V29.2z"/>
	<path opacity="0.8" fill="#FFFFFF" d="M269,22.4c1.7,2.5,3.2,4.4,4.5,5.6c2.3,2.2,4.4,3.1,6.3,2.8c-0.1,0.2-0.3,0.4-0.8,0.6
		c-0.8,0.4-2.1,0.6-3.8,0.6s-3.7-1.4-6.1-4.3c-1.2-1.4-2.2-2.9-3.1-4.3c-0.4-0.7-1-1.4-1.9-2.1c-1.8-1.4-4-2.1-6.5-2.1v10
		c0.1,0.8,0.5,1.5,1.3,2.1c0.4,0.3,0.8,0.5,1.2,0.6h-8.5c0.4-0.1,0.8-0.4,1.2-0.6c0.8-0.6,1.3-1.3,1.3-2.1V5
		c-0.1-0.8-0.5-1.5-1.3-2.1c-0.4-0.3-0.8-0.5-1.2-0.7h6c2.1-0.3,4.2-0.3,6.3,0.1c4.2,0.9,6.3,3.2,6.3,7.1c0.1,0.7-0.1,1.6-0.4,2.7
		c-0.7,2.2-2.1,4.2-4.1,6C266.6,19,267.7,20.5,269,22.4z M262.5,17.1c0.7,0,1.4-0.3,2.1-0.8c1.4-1,2-2.7,2-5.1
		c0-2.6-0.7-4.6-2.1-6.1c-1.1-1.2-2.4-1.8-3.8-1.8s-2.2,0-2.4,0.1c-0.4,0.2-0.7,0.8-0.7,1.9c0,1.6,0,5.5-0.1,11.7H262.5z"/>
	<path opacity="0.8" fill="#FFFFFF" d="M297.6,2c3.5,0,6.7,1.4,9.6,4.2c3.3,3.1,4.9,6.9,4.9,11.4c0,4.4-1.7,7.9-5,10.8
		c-2.9,2.4-6.1,3.6-9.5,3.6c-3.7,0-7-1.1-10-3.2c-3.7-2.7-5.5-6.4-5.5-11.3c0-6.8,2.6-11.5,7.8-13.9C292.5,2.4,295.1,1.9,297.6,2z
		 M285.9,17c0,4,1,7.2,3,9.6c1.4,1.7,3.2,2.8,5.5,3.5v-26c-2.2,0.6-4.1,1.8-5.5,3.4C286.9,9.8,285.9,13,285.9,17z M296.3,3.7
		c-0.3,0-0.7,0.1-1,0.2v26.5c0.3,0.1,0.7,0.1,1,0.2V3.7z M297.7,30.5c0.4,0,0.8,0,1.2-0.1V3.9c-0.4-0.1-0.8-0.2-1.2-0.2V30.5z
		 M299.8,30.3c2.3-0.5,4.1-1.5,5.5-3.1c2-2.2,3-5.4,3-9.6c0-4.2-1-7.5-3-9.9c-1.4-1.7-3.3-2.9-5.5-3.6V30.3z"/>
	<path opacity="0.8" fill="#FFFFFF" d="M345,2c-0.4,0.1-0.8,0.4-1.2,0.7c-0.8,0.6-1.3,1.3-1.3,2.1V32l0,0v0L320.6,9.4v19.9
		c0.1,0.8,0.5,1.5,1.3,2.1c0.4,0.3,0.8,0.5,1.2,0.7h-8.6c0.4-0.1,0.8-0.4,1.2-0.7c0.8-0.6,1.3-1.3,1.3-2.1V2l21.8,22.9V4.8
		c-0.1-0.8-0.5-1.5-1.3-2.1c-0.4-0.3-0.8-0.5-1.2-0.7H345z"/>
	<path opacity="0.8" fill="#FFFFFF" d="M362.8,2.5l1.1-0.5l-1.1,5.5c0-0.5-0.2-1.1-0.5-1.6c-0.6-1.1-1.4-1.6-2.7-1.6h-5.7v11.2h6.3
		c1.2,0,2.2-0.4,3-1l-0.7,5.9c0-0.5-0.2-1.1-0.5-1.6c-0.6-1.1-1.7-1.6-3.2-1.6h-4.8v11.1c0.3,0.4,0.8,0.8,1.4,1.3
		c1.2,0.8,2.5,1.3,3.9,1.3c1.4,0,2.7-0.7,3.9-2c0.6-0.7,1.1-1.3,1.4-2l-0.6,5.2h-16c0.4-0.1,0.8-0.4,1.3-0.7
		c0.9-0.6,1.3-1.4,1.3-2.3c0-1.4,0-9.5,0-24.5c-0.4-0.9-1.5-1.6-3-2H362.8z"/>
	<path opacity="0.8" fill="#FFFFFF" d="M367.6,24.6c0,1.9,0.7,3.4,2.1,4.4c1.1,0.8,2.3,1.1,3.7,1.1c1.2,0,2.5-0.4,3.7-1.2
		c1.4-1,2.2-2.1,2.2-3.5c0-1.3-0.6-2.7-1.7-4.2c-0.7-0.9-2.1-2.3-4.2-4.1c-2-1.8-3.4-3.2-4.1-4.1c-1.1-1.4-1.7-2.9-1.7-4.4
		c0-1.7,0.7-3.2,2.1-4.5c1.5-1.3,3.5-2,5.9-2c2.1,0,3.7,0.2,4.7,0.6c0.5,0.2,0.9,0.4,1,0.6l-0.9,5.2c0-1-0.4-2-1.1-3
		c-0.9-1.2-2.1-1.9-3.6-1.9c-1.6,0-2.9,0.3-3.8,1c-0.8,0.7-1.2,1.6-1.2,2.8c0,2,1.7,4.3,5.1,7.1c2.1,1.7,3.5,3,4.2,3.8
		c1.5,1.7,2.2,3.5,2.2,5.2c0,2.8-1.3,5-3.8,6.7c-2,1.3-4.1,2-6.4,2c-1.4,0-2.6-0.4-3.7-1.1c-0.5-0.4-0.9-0.7-1.1-1.1
		C367,28.4,367.1,26.7,367.6,24.6z"/>
</g>
</svg>
